<svg width="333" height="333" viewBox="0 0 333 333" fill="none" xmlns="http://www.w3.org/2000/svg">
<path d="M52.1961 114.718C67.7305 102.647 80.6176 110.972 97.8171 130.886C99.7485 133.133 102.346 130.503 103.828 129.221C105.293 127.922 127.987 107.492 129.102 106.56C130.201 105.578 131.533 103.746 129.785 101.698C125.574 96.4892 121.45 91.2104 117.414 85.864C87.3109 46.4868 199.765 19.7802 182.499 19.3639C173.708 19.1308 138.443 18.7146 133.165 19.2973C111.803 21.5451 84.9799 41.5084 71.4768 50.8158C53.8111 62.9037 47.2177 69.9966 46.1355 70.9789C41.1405 75.3412 45.3363 85.4145 36.2787 93.3565C26.7049 101.731 20.7276 95.3878 15.1831 100.25C12.4359 102.681 4.74357 108.441 2.54577 110.356C0.33132 112.304 -0.0682796 115.584 2.19612 118.198C2.19612 118.198 23.2417 141.442 25.0066 143.506C26.7549 145.538 31.5168 147.303 34.4472 144.688C37.3942 142.091 44.97 135.481 46.2354 134.316C47.5341 133.217 45.4029 119.98 52.1961 114.718ZM147.234 123.327C145.236 121.012 142.755 120.946 140.624 122.844L116.748 143.689C115.826 144.526 115.265 145.687 115.181 146.929C115.097 148.171 115.498 149.397 116.299 150.349L254.394 307.509C257.624 311.222 263.218 311.605 266.898 308.391L283.048 294.855C284.826 293.289 285.914 291.086 286.076 288.723C286.238 286.359 285.461 284.028 283.914 282.234L147.234 123.327ZM331.367 56.4435C330.135 48.2184 325.872 49.9333 323.658 53.4132C321.443 56.9263 311.653 71.7615 307.624 78.4881C303.628 85.1481 293.771 98.3182 275.423 85.3146C256.308 71.8114 262.952 62.3875 266.282 56.0439C269.628 49.6669 279.901 31.7848 281.383 29.5704C282.865 27.3226 281.134 20.7958 275.206 23.5264C269.262 26.257 233.198 40.5927 228.203 61.1554C223.092 82.0678 232.482 100.766 214.051 119.331L191.69 142.641L214.151 168.714L241.69 142.574C248.25 135.981 262.269 129.57 274.956 132.467C302.146 138.611 316.981 128.405 325.922 111.522C333.947 96.4368 332.615 64.6686 331.367 56.4435ZM45.6027 283.932C43.9372 285.61 43.0026 287.879 43.0026 290.243C43.0026 292.607 43.9372 294.875 45.6027 296.553L61.4368 312.038C64.9 315.517 70.3945 314.052 73.8577 310.572L155.559 230.253L130.534 201.715L45.6027 283.932Z" fill="#6AD7E5"/>
</svg>
