<svg width="361" height="361" viewBox="0 0 361 361" fill="none" xmlns="http://www.w3.org/2000/svg">
<g clip-path="url(#clip0_818_1694)">
<path d="M306.85 0H54.15C24.2438 0 0 24.2438 0 54.15V306.85C0 336.756 24.2438 361 54.15 361H306.85C336.756 361 361 336.756 361 306.85V54.15C361 24.2438 336.756 0 306.85 0Z" fill="#6AD7E5"/>
<path d="M183.32 245.367L86.7246 268.635V92.3652L183.32 114.928V245.367Z" fill="#E05243"/>
<path d="M180.5 246.072L274.275 268.635V92.3652L180.5 114.928V246.072Z" fill="#8C3123"/>
<path d="M180.5 45.125V113.518L221.395 123.389V65.5723L180.5 45.125ZM274.275 92.3652V268.635L292.607 259.469V100.826L274.275 92.3652ZM180.5 146.656V215.049L221.395 209.408V151.592L180.5 146.656ZM221.395 237.611L180.5 247.482V315.875L221.395 295.428V237.611Z" fill="#E05243"/>
<path d="M180.5 315.875V247.482L139.605 237.611V295.428L180.5 315.875ZM86.7246 268.635L86.7246 92.3652L68.3926 101.531L68.3926 260.174L86.7246 268.635ZM180.5 214.344L180.5 145.951L139.605 151.592L139.605 209.408L180.5 214.344ZM139.605 123.389L180.5 113.518V45.125L139.605 65.5723V123.389Z" fill="#8C3123"/>
<path d="M221.395 123.389L180.5 131.145L139.605 123.389L180.5 112.812L221.395 123.389Z" fill="#5E1F18"/>
<path d="M221.395 237.611L180.5 229.855L139.605 237.611L180.5 248.893L221.395 237.611Z" fill="#F2B0A9"/>
</g>
<defs>
<clipPath id="clip0_818_1694">
<rect width="361" height="361" fill="white"/>
</clipPath>
</defs>
</svg>
