<svg width="957" height="957" viewBox="0 0 957 957" fill="none" xmlns="http://www.w3.org/2000/svg">
<path d="M73.5383 723.295C76.7841 746.498 91.7169 765.779 112.853 775.89C188.892 812.264 377.263 897.188 478.5 897.188C579.737 897.188 768.108 812.264 844.148 775.89C865.284 765.779 880.217 746.498 883.463 723.295C889.312 681.464 897.188 602.192 897.188 478.5C897.188 354.808 889.312 275.536 883.463 233.705C880.217 210.502 865.284 191.221 844.148 181.11C768.108 144.736 579.737 59.8125 478.5 59.8125C377.263 59.8125 188.892 144.736 112.853 181.11C91.7169 191.221 76.7841 210.502 73.5383 233.705C67.6868 275.536 59.8125 354.808 59.8125 478.5C59.8125 602.192 67.6868 681.464 73.5383 723.295Z" fill="#262626" stroke="#0AB9D8" stroke-width="15" stroke-linejoin="round"/>
<path d="M882.868 234.383C818.103 266.271 552.55 394.761 478.5 394.761C404.452 394.761 138.897 266.271 74.1328 234.383" stroke="#0AB9D8" stroke-width="15" stroke-linecap="round" stroke-linejoin="round"/>
<path d="M478.5 394.759V892.203" stroke="#0AB9D8" stroke-width="15" stroke-linecap="round" stroke-linejoin="round"/>
<path d="M501.11 178.615C501.797 174.836 499.099 171.307 495.264 171.087C487.316 170.629 473.808 170.161 460.538 171.132C457.334 171.366 454.565 173.437 453.422 176.439C446.734 194.015 443.543 210.25 442.185 218.843C441.625 222.388 444.176 225.544 447.756 225.79C453.089 226.156 461.316 226.537 470.844 226.344C469.855 233.392 468.795 244.217 467.738 256.13C467.205 262.147 474.278 265.463 478.399 261.048C494.675 243.608 509.623 224.181 517.839 213.084C520.831 209.042 518.215 203.55 513.187 203.42C508.724 203.303 502.971 203.249 496 203.375C497.896 195.77 499.578 187.049 501.11 178.615Z" stroke="white" stroke-width="8" stroke-linejoin="round"/>
</svg>
